<?xml version="1.0" encoding="UTF-8"?>
<svg xmlns="http://www.w3.org/2000/svg" viewBox="0 0 750 440"
     width="750" height="440" style="background:#1A1A2E">
  <style>
    text { font-family: 'Inter', 'Segoe UI', system-ui, sans-serif; }
  </style>
  <text x="400" y="35" text-anchor="middle" fill="#E8634A" font-size="20" font-weight="600">Arquitetura da Rede Neural</text>
<line x1="118" y1="163.75" x2="262" y2="136.25" stroke="#6B7280" stroke-width="0.5" stroke-opacity="0.25"/>
<line x1="118" y1="163.75" x2="262" y2="191.25" stroke="#6B7280" stroke-width="0.5" stroke-opacity="0.25"/>
<line x1="118" y1="163.75" x2="262" y2="246.25" stroke="#6B7280" stroke-width="0.5" stroke-opacity="0.25"/>
<line x1="118" y1="163.75" x2="262" y2="301.25" stroke="#6B7280" stroke-width="0.5" stroke-opacity="0.25"/>
<line x1="118" y1="163.75" x2="262" y2="356.25" stroke="#6B7280" stroke-width="0.5" stroke-opacity="0.25"/>
<line x1="118" y1="218.75" x2="262" y2="136.25" stroke="#6B7280" stroke-width="0.5" stroke-opacity="0.25"/>
<line x1="118" y1="218.75" x2="262" y2="191.25" stroke="#6B7280" stroke-width="0.5" stroke-opacity="0.25"/>
<line x1="118" y1="218.75" x2="262" y2="246.25" stroke="#6B7280" stroke-width="0.5" stroke-opacity="0.25"/>
<line x1="118" y1="218.75" x2="262" y2="301.25" stroke="#6B7280" stroke-width="0.5" stroke-opacity="0.25"/>
<line x1="118" y1="218.75" x2="262" y2="356.25" stroke="#6B7280" stroke-width="0.5" stroke-opacity="0.25"/>
<line x1="118" y1="273.75" x2="262" y2="136.25" stroke="#6B7280" stroke-width="0.5" stroke-opacity="0.25"/>
<line x1="118" y1="273.75" x2="262" y2="191.25" stroke="#6B7280" stroke-width="0.5" stroke-opacity="0.25"/>
<line x1="118" y1="273.75" x2="262" y2="246.25" stroke="#6B7280" stroke-width="0.5" stroke-opacity="0.25"/>
<line x1="118" y1="273.75" x2="262" y2="301.25" stroke="#6B7280" stroke-width="0.5" stroke-opacity="0.25"/>
<line x1="118" y1="273.75" x2="262" y2="356.25" stroke="#6B7280" stroke-width="0.5" stroke-opacity="0.25"/>
<line x1="298" y1="136.25" x2="442" y2="136.25" stroke="#6B7280" stroke-width="0.5" stroke-opacity="0.25"/>
<line x1="298" y1="136.25" x2="442" y2="191.25" stroke="#6B7280" stroke-width="0.5" stroke-opacity="0.25"/>
<line x1="298" y1="136.25" x2="442" y2="246.25" stroke="#6B7280" stroke-width="0.5" stroke-opacity="0.25"/>
<line x1="298" y1="136.25" x2="442" y2="301.25" stroke="#6B7280" stroke-width="0.5" stroke-opacity="0.25"/>
<line x1="298" y1="136.25" x2="442" y2="356.25" stroke="#6B7280" stroke-width="0.5" stroke-opacity="0.25"/>
<line x1="298" y1="191.25" x2="442" y2="136.25" stroke="#6B7280" stroke-width="0.5" stroke-opacity="0.25"/>
<line x1="298" y1="191.25" x2="442" y2="191.25" stroke="#6B7280" stroke-width="0.5" stroke-opacity="0.25"/>
<line x1="298" y1="191.25" x2="442" y2="246.25" stroke="#6B7280" stroke-width="0.5" stroke-opacity="0.25"/>
<line x1="298" y1="191.25" x2="442" y2="301.25" stroke="#6B7280" stroke-width="0.5" stroke-opacity="0.25"/>
<line x1="298" y1="191.25" x2="442" y2="356.25" stroke="#6B7280" stroke-width="0.5" stroke-opacity="0.25"/>
<line x1="298" y1="246.25" x2="442" y2="136.25" stroke="#6B7280" stroke-width="0.5" stroke-opacity="0.25"/>
<line x1="298" y1="246.25" x2="442" y2="191.25" stroke="#6B7280" stroke-width="0.5" stroke-opacity="0.25"/>
<line x1="298" y1="246.25" x2="442" y2="246.25" stroke="#6B7280" stroke-width="0.5" stroke-opacity="0.25"/>
<line x1="298" y1="246.25" x2="442" y2="301.25" stroke="#6B7280" stroke-width="0.5" stroke-opacity="0.25"/>
<line x1="298" y1="246.25" x2="442" y2="356.25" stroke="#6B7280" stroke-width="0.5" stroke-opacity="0.25"/>
<line x1="298" y1="301.25" x2="442" y2="136.25" stroke="#6B7280" stroke-width="0.5" stroke-opacity="0.25"/>
<line x1="298" y1="301.25" x2="442" y2="191.25" stroke="#6B7280" stroke-width="0.5" stroke-opacity="0.25"/>
<line x1="298" y1="301.25" x2="442" y2="246.25" stroke="#6B7280" stroke-width="0.5" stroke-opacity="0.25"/>
<line x1="298" y1="301.25" x2="442" y2="301.25" stroke="#6B7280" stroke-width="0.5" stroke-opacity="0.25"/>
<line x1="298" y1="301.25" x2="442" y2="356.25" stroke="#6B7280" stroke-width="0.5" stroke-opacity="0.25"/>
<line x1="298" y1="356.25" x2="442" y2="136.25" stroke="#6B7280" stroke-width="0.5" stroke-opacity="0.25"/>
<line x1="298" y1="356.25" x2="442" y2="191.25" stroke="#6B7280" stroke-width="0.5" stroke-opacity="0.25"/>
<line x1="298" y1="356.25" x2="442" y2="246.25" stroke="#6B7280" stroke-width="0.5" stroke-opacity="0.25"/>
<line x1="298" y1="356.25" x2="442" y2="301.25" stroke="#6B7280" stroke-width="0.5" stroke-opacity="0.25"/>
<line x1="298" y1="356.25" x2="442" y2="356.25" stroke="#6B7280" stroke-width="0.5" stroke-opacity="0.25"/>
<line x1="478" y1="136.25" x2="622" y2="177.5" stroke="#6B7280" stroke-width="0.5" stroke-opacity="0.25"/>
<line x1="478" y1="136.25" x2="622" y2="232.5" stroke="#6B7280" stroke-width="0.5" stroke-opacity="0.25"/>
<line x1="478" y1="191.25" x2="622" y2="177.5" stroke="#6B7280" stroke-width="0.5" stroke-opacity="0.25"/>
<line x1="478" y1="191.25" x2="622" y2="232.5" stroke="#6B7280" stroke-width="0.5" stroke-opacity="0.25"/>
<line x1="478" y1="246.25" x2="622" y2="177.5" stroke="#6B7280" stroke-width="0.5" stroke-opacity="0.25"/>
<line x1="478" y1="246.25" x2="622" y2="232.5" stroke="#6B7280" stroke-width="0.5" stroke-opacity="0.25"/>
<line x1="478" y1="301.25" x2="622" y2="177.5" stroke="#6B7280" stroke-width="0.5" stroke-opacity="0.25"/>
<line x1="478" y1="301.25" x2="622" y2="232.5" stroke="#6B7280" stroke-width="0.5" stroke-opacity="0.25"/>
<line x1="478" y1="356.25" x2="622" y2="177.5" stroke="#6B7280" stroke-width="0.5" stroke-opacity="0.25"/>
<line x1="478" y1="356.25" x2="622" y2="232.5" stroke="#6B7280" stroke-width="0.5" stroke-opacity="0.25"/>
<circle cx="100" cy="163.75" r="18" fill="#2AABB3" fill-opacity="0.2" stroke="#2AABB3" stroke-width="2"/>
<circle cx="100" cy="218.75" r="18" fill="#2AABB3" fill-opacity="0.2" stroke="#2AABB3" stroke-width="2"/>
<circle cx="100" cy="273.75" r="18" fill="#2AABB3" fill-opacity="0.2" stroke="#2AABB3" stroke-width="2"/>
<text x="100" y="400" text-anchor="middle" fill="#2AABB3" font-size="13">Entrada</text>
<circle cx="280" cy="136.25" r="18" fill="#F4A393" fill-opacity="0.2" stroke="#F4A393" stroke-width="2"/>
<circle cx="280" cy="191.25" r="18" fill="#F4A393" fill-opacity="0.2" stroke="#F4A393" stroke-width="2"/>
<circle cx="280" cy="246.25" r="18" fill="#F4A393" fill-opacity="0.2" stroke="#F4A393" stroke-width="2"/>
<circle cx="280" cy="301.25" r="18" fill="#F4A393" fill-opacity="0.2" stroke="#F4A393" stroke-width="2"/>
<circle cx="280" cy="356.25" r="18" fill="#F4A393" fill-opacity="0.2" stroke="#F4A393" stroke-width="2"/>
<text x="280" y="406.25" text-anchor="middle" fill="#F4A393" font-size="13">Oculta 1</text>
<circle cx="460" cy="136.25" r="18" fill="#F4A393" fill-opacity="0.2" stroke="#F4A393" stroke-width="2"/>
<circle cx="460" cy="191.25" r="18" fill="#F4A393" fill-opacity="0.2" stroke="#F4A393" stroke-width="2"/>
<circle cx="460" cy="246.25" r="18" fill="#F4A393" fill-opacity="0.2" stroke="#F4A393" stroke-width="2"/>
<circle cx="460" cy="301.25" r="18" fill="#F4A393" fill-opacity="0.2" stroke="#F4A393" stroke-width="2"/>
<circle cx="460" cy="356.25" r="18" fill="#F4A393" fill-opacity="0.2" stroke="#F4A393" stroke-width="2"/>
<text x="460" y="406.25" text-anchor="middle" fill="#F4A393" font-size="13">Oculta 2</text>
<circle cx="640" cy="177.5" r="18" fill="#E8634A" fill-opacity="0.2" stroke="#E8634A" stroke-width="2"/>
<circle cx="640" cy="232.5" r="18" fill="#E8634A" fill-opacity="0.2" stroke="#E8634A" stroke-width="2"/>
<text x="640" y="400" text-anchor="middle" fill="#E8634A" font-size="13">Saída</text>
</svg>