<?xml version="1.0" encoding="UTF-8"?>
<svg xmlns="http://www.w3.org/2000/svg" viewBox="0 0 680 350"
     width="680" height="350" style="background:#1A1A2E">
  <style>
    text { font-family: 'Inter', 'Segoe UI', system-ui, sans-serif; }
  </style>
  <text x="340" y="40" text-anchor="middle" fill="#E8634A" font-size="20" font-weight="600">Arquiteturas em Resumo</text>
<rect x="60" y="80" width="160" height="45" fill="#E8634A" fill-opacity="0.2" stroke="#E8634A" stroke-width="1"/>
<text x="140.0" y="108" text-anchor="middle" fill="#E8634A" font-size="13" font-weight="600">Arquitetura</text>
<rect x="220" y="80" width="200" height="45" fill="#E8634A" fill-opacity="0.2" stroke="#E8634A" stroke-width="1"/>
<text x="320.0" y="108" text-anchor="middle" fill="#E8634A" font-size="13" font-weight="600">Melhor para</text>
<rect x="420" y="80" width="200" height="45" fill="#E8634A" fill-opacity="0.2" stroke="#E8634A" stroke-width="1"/>
<text x="520.0" y="108" text-anchor="middle" fill="#E8634A" font-size="13" font-weight="600">Exemplo de uso</text>
<rect x="60" y="125" width="160" height="45" fill="#2AABB3" fill-opacity="0.05" stroke="#6B7280" stroke-width="0.5"/>
<text x="140.0" y="153" text-anchor="middle" fill="#FFFFFF" font-size="12">Feedforward</text>
<rect x="220" y="125" width="200" height="45" fill="#2AABB3" fill-opacity="0.05" stroke="#6B7280" stroke-width="0.5"/>
<text x="320.0" y="153" text-anchor="middle" fill="#FFFFFF" font-size="12">Dados tabulares simples</text>
<rect x="420" y="125" width="200" height="45" fill="#2AABB3" fill-opacity="0.05" stroke="#6B7280" stroke-width="0.5"/>
<text x="520.0" y="153" text-anchor="middle" fill="#FFFFFF" font-size="12">Prever preço de imóvel</text>
<rect x="60" y="170" width="160" height="45" fill="#8B5CF6" fill-opacity="0.05" stroke="#6B7280" stroke-width="0.5"/>
<text x="140.0" y="198" text-anchor="middle" fill="#FFFFFF" font-size="12">CNN</text>
<rect x="220" y="170" width="200" height="45" fill="#8B5CF6" fill-opacity="0.05" stroke="#6B7280" stroke-width="0.5"/>
<text x="320.0" y="198" text-anchor="middle" fill="#FFFFFF" font-size="12">Imagens</text>
<rect x="420" y="170" width="200" height="45" fill="#8B5CF6" fill-opacity="0.05" stroke="#6B7280" stroke-width="0.5"/>
<text x="520.0" y="198" text-anchor="middle" fill="#FFFFFF" font-size="12">Reconhecimento facial</text>
<rect x="60" y="215" width="160" height="45" fill="#2AABB3" fill-opacity="0.05" stroke="#6B7280" stroke-width="0.5"/>
<text x="140.0" y="243" text-anchor="middle" fill="#FFFFFF" font-size="12">RNN / LSTM</text>
<rect x="220" y="215" width="200" height="45" fill="#2AABB3" fill-opacity="0.05" stroke="#6B7280" stroke-width="0.5"/>
<text x="320.0" y="243" text-anchor="middle" fill="#FFFFFF" font-size="12">Sequências curtas</text>
<rect x="420" y="215" width="200" height="45" fill="#2AABB3" fill-opacity="0.05" stroke="#6B7280" stroke-width="0.5"/>
<text x="520.0" y="243" text-anchor="middle" fill="#FFFFFF" font-size="12">Análise de sentimento</text>
<rect x="60" y="260" width="160" height="45" fill="#8B5CF6" fill-opacity="0.05" stroke="#6B7280" stroke-width="0.5"/>
<text x="140.0" y="288" text-anchor="middle" fill="#FFFFFF" font-size="12">Transformer</text>
<rect x="220" y="260" width="200" height="45" fill="#8B5CF6" fill-opacity="0.05" stroke="#6B7280" stroke-width="0.5"/>
<text x="320.0" y="288" text-anchor="middle" fill="#FFFFFF" font-size="12">Texto longo, linguagem</text>
<rect x="420" y="260" width="200" height="45" fill="#8B5CF6" fill-opacity="0.05" stroke="#6B7280" stroke-width="0.5"/>
<text x="520.0" y="288" text-anchor="middle" fill="#FFFFFF" font-size="12">ChatGPT, tradutores</text>
</svg>